<?xml version="1.0" encoding="utf-8"?>
<!-- Generator: Adobe Illustrator 26.3.1, SVG Export Plug-In . SVG Version: 6.00 Build 0)  -->
<svg version="1.1" id="Layer_1" xmlns="http://www.w3.org/2000/svg" xmlns:xlink="http://www.w3.org/1999/xlink" x="0px" y="0px"
	 viewBox="0 0 354 288" style="enable-background:new 0 0 354 288;" xml:space="preserve">
<style type="text/css">
	.st0{fill:#181516;}
	.st1{fill:#FBFBFB;}
	.st2{fill:#D5A9EA;}
	.st3{fill:#DDDDDB;}
</style>
<path class="st0" d="M98.07,112.31c-7.89,1.82-15.37,3.45-22.79,5.3c-2.86,0.71-5.29,0.48-7.32-1.69c-2.11-2.25-1.85-4.88-0.87-7.49
	c2.39-6.4,6.87-10.45,13.6-12c15.73-3.62,31.46-7.23,47.17-10.94c21.7-5.12,43.35-10.47,65.1-15.4c7.08-1.6,14.39-2.18,21.28-3.17
	c9.43-8.62,18.7-17.71,28.65-25.98c8.62-7.17,18.64-12.18,29.56-15.19c3.21-0.89,6.29-1.21,8.78,1.55c2.63,2.92,1.9,5.93,0.49,9.26
	c-10.32,24.33-22.67,47.47-39.33,68.13c-1.35,1.68-2.79,3.28-4.38,5.16c8.45,28.47,16.92,56.97,25.47,85.78
	c5.35-1.79,10.23-3.34,15.05-5.07c2.49-0.9,4.77-1.33,7.02,0.55c2.42,2.02,2.45,4.62,1.77,7.3c-1.32,5.15-4.25,8.94-9.43,10.8
	c-24.74,8.88-49.48,17.8-74.22,26.69c-13.31,4.78-27.06,8.61-39.83,14.55c-15.26,7.1-30.49-4.03-34.07-17.13
	c-2.55-9.31-4.96-18.65-7.38-28c-7.7-29.81-15.38-59.63-23.08-89.45C99,114.74,98.54,113.67,98.07,112.31z M76.71,113.27
	c6.64-1.47,13.28-2.94,20.53-4.55c-4.08-6.52-8.77-9.7-15.73-8.6c-7.86,1.66-12.49,7.86-10.13,14.48
	C73.08,114.18,74.9,113.72,76.71,113.27z M172.34,237.05c-0.94,2.13-1.88,4.27-3.15,7.18c3.19-1.07,5.38-1.76,7.54-2.54
	c14.36-5.18,28.7-10.39,43.06-15.57c18.88-6.81,37.77-13.6,56.65-20.41c3.26-1.18,5.85-3.06,6.59-6.72
	c0.86-1.98,1.98-3.98-0.88-5.92c-7.63,2.63-15.44,5.32-23.25,8.01c-26.65,9.18-53.28,18.41-79.97,27.48
	C174.62,230.02,171.93,232.2,172.34,237.05z M167.64,237.13c0.35-0.73,0.94-1.43,1.03-2.19c0.56-5.12,3.5-7.78,8.3-9.4
	c20.17-6.79,40.26-13.81,60.38-20.78c7.49-2.6,14.95-5.28,22.7-8.01c-8.35-28.17-16.56-55.84-24.91-84.01
	c-8.88,7.78-17.66,14.76-30.25,11.2c-0.76,1.33-1.41,2.47-2.06,3.61c-3.35,5.94-6.63,11.92-10.1,17.79
	c-0.74,1.25-2.21,2.06-3.34,3.07c-0.43-0.35-0.86-0.71-1.29-1.06c4.12-8.98,8.25-17.97,12.39-27.01
	c-4.61-8.25-4.41-17.09-1.12-25.52c3.15-8.1,7.64-15.68,11.49-23.37c-6.03-0.86-104.07,21.07-117.1,26.24
	c2.45,3.85,6.12,7.48,7.28,11.78c8.81,32.6,17.1,65.33,25.62,98.01c2.39,9.17,4.54,18.44,7.65,27.37
	c3.19,9.18,11.25,14.29,20.24,14.14C160.77,248.29,165.73,243.8,167.64,237.13z M258.4,48.71c-19.33,22.17-37.18,45.25-51.01,71.76
	c5.93,1.3,11,0.24,15.21-2.89c5.18-3.85,10.34-7.96,14.59-12.77c18.29-20.72,30.66-45.04,41.43-70.24c0.56-1.31,0.67-3.61-0.1-4.48
	c-0.83-0.93-3.07-1.21-4.48-0.87c-3.38,0.81-6.71,1.97-9.92,3.32c-8.66,3.63-15.96,9.25-23.39,14.96
	c-14.93,11.47-26.8,25.25-35.54,41.82c-3.05,5.78-4.78,11.97-4.42,18.54c0.15,2.77,1.08,5.49,1.89,9.33
	C219.38,91.6,237.04,68.61,258.4,48.71z"/>
<path class="st1" d="M154.53,248.99c-8.98,0.16-17.05-4.96-20.24-14.14c-3.1-8.93-5.26-18.2-7.65-27.37
	c-8.52-32.68-16.81-65.41-25.62-98.01c-1.16-4.31-4.83-7.93-7.28-11.78c13.03-5.17,111.07-27.1,117.1-26.24
	c-3.84,7.69-8.33,15.27-11.49,23.37c-3.28,8.43-3.48,17.27,1.12,25.52c-4.15,9.04-8.27,18.02-12.39,27.01
	c0.43,0.35,0.86,0.71,1.29,1.06c1.13-1.01,2.6-1.83,3.34-3.07c3.48-5.86,6.75-11.85,10.1-17.79c0.64-1.14,1.3-2.28,2.06-3.61
	c12.59,3.56,21.37-3.42,30.25-11.2c8.35,28.16,16.55,55.84,24.91,84.01c-7.75,2.74-15.21,5.42-22.7,8.01
	c-20.11,6.97-40.2,13.99-60.38,20.78c-4.8,1.62-7.74,4.27-8.3,9.4c-0.08,0.76-0.67,1.46-1.03,2.19c-5.27,1.25-10.58,2.32-15.76,3.88
	c-1.22,0.37-1.95,2.35-2.84,3.5C151.38,246.42,152.96,247.7,154.53,248.99z M131.88,105.94c17.94-2.34,35.6-6.08,52.63-12.56
	C166.43,95.15,149.03,99.91,131.88,105.94z M188.05,120.25c-16.42,0.2-31.76,5.7-47.22,10.64
	C157.03,129.65,172.62,125.53,188.05,120.25z M209.2,181.33c-15.45,1.53-29.88,6.78-44.19,12.52
	C180.42,192.16,194.97,187.39,209.2,181.33z M151.42,162.35c13.64-1.47,26.69-5.17,39.15-10.98
	C177.01,153.12,163.9,156.52,151.42,162.35z"/>
<path class="st2" d="M258.4,48.71c-21.37,19.91-39.03,42.9-55.76,68.47c-0.81-3.84-1.74-6.57-1.89-9.33
	c-0.35-6.56,1.37-12.76,4.42-18.54c8.75-16.57,20.61-30.35,35.54-41.82c7.43-5.71,14.74-11.33,23.39-14.96
	c3.21-1.35,6.54-2.51,9.92-3.32c1.41-0.34,3.65-0.06,4.48,0.87c0.77,0.87,0.66,3.17,0.1,4.48c-10.77,25.2-23.14,49.52-41.43,70.24
	c-4.25,4.81-9.41,8.92-14.59,12.77c-4.21,3.13-9.28,4.19-15.21,2.89C221.22,93.96,239.07,70.87,258.4,48.71z"/>
<path class="st1" d="M172.34,237.05c-0.41-4.86,2.28-7.03,6.59-8.5c26.69-9.06,53.32-18.3,79.97-27.48
	c7.81-2.69,15.62-5.38,23.25-8.01c2.85,1.94,1.73,3.94,0.88,5.92c-2.63,0.96-5.25,1.94-7.89,2.86c-14.6,5.08-29.18,10.19-43.8,15.19
	C211.69,223.76,192.01,230.39,172.34,237.05z"/>
<path class="st3" d="M172.34,237.05c19.67-6.67,39.35-13.29,59-20.01c14.62-5,29.2-10.11,43.8-15.19c2.64-0.92,5.26-1.91,7.89-2.86
	c-0.75,3.66-3.34,5.55-6.59,6.72c-18.88,6.81-37.77,13.6-56.65,20.41c-14.36,5.18-28.7,10.39-43.06,15.57
	c-2.16,0.78-4.35,1.47-7.54,2.54C170.46,241.32,171.4,239.19,172.34,237.05z"/>
<path class="st3" d="M81.51,100.12c6.96-1.1,11.65,2.09,15.73,8.6c-7.25,1.61-13.89,3.08-20.53,4.55c-2.33-3-1.07-5.57,0.93-8.08
	C78.96,103.52,80.22,101.81,81.51,100.12z"/>
<path class="st3" d="M154.53,248.99c-1.58-1.29-3.15-2.57-5.5-4.49c0.89-1.15,1.62-3.13,2.84-3.5c5.17-1.55,10.49-2.63,15.76-3.88
	C165.73,243.8,160.77,248.29,154.53,248.99z"/>
<path class="st1" d="M81.51,100.12c-1.29,1.69-2.55,3.4-3.87,5.07c-2,2.51-3.26,5.09-0.93,8.08c-1.82,0.45-3.63,0.9-5.33,1.33
	C69.02,107.98,73.65,101.78,81.51,100.12z"/>
<path class="st0" d="M131.88,105.94c17.16-6.04,34.56-10.79,52.63-12.56C167.48,99.86,149.81,103.6,131.88,105.94z"/>
<path class="st0" d="M188.05,120.25c-15.43,5.27-31.02,9.4-47.22,10.64C156.29,125.96,171.63,120.45,188.05,120.25z"/>
<path class="st0" d="M209.2,181.33c-14.23,6.07-28.79,10.84-44.19,12.52C179.32,188.1,193.75,182.86,209.2,181.33z"/>
<path class="st0" d="M151.42,162.35c12.49-5.83,25.59-9.23,39.15-10.98C178.11,157.18,165.06,160.88,151.42,162.35z"/>
</svg>
